<svg width="13" height="13" viewBox="0 0 13 13" fill="none" xmlns="http://www.w3.org/2000/svg">
<path d="M8.97589 9.95962C7.85787 10.8275 6.45108 11.2366 5.04202 11.1038C3.63289 10.971 2.32738 10.3061 1.39118 9.24462C0.454982 8.18307 -0.0415261 6.80465 0.00272251 5.38992C0.0469711 3.97514 0.628651 2.63043 1.62935 1.62948C2.63024 0.628695 3.97486 0.0469744 5.38952 0.00272271C6.80417 -0.041529 8.1825 0.455015 9.24395 1.39128C10.3054 2.32754 10.9702 3.63316 11.103 5.04235C11.2359 6.45155 10.8267 7.85838 9.95892 8.97649L12.778 11.7959C12.8696 11.8809 12.9365 11.989 12.9718 12.1089C13.0071 12.2288 13.0093 12.3559 12.9784 12.477C12.9474 12.598 12.8844 12.7085 12.7959 12.7968C12.7074 12.885 12.5968 12.9477 12.4757 12.9784C12.3548 13.0093 12.2278 13.007 12.108 12.9719C11.9883 12.9368 11.8802 12.8702 11.7951 12.779L8.97589 9.95962ZM9.73628 5.56362C9.74453 5.01049 9.64277 4.46126 9.43681 3.94787C9.23085 3.43447 8.92489 2.96715 8.53671 2.57309C8.1485 2.17903 7.68579 1.8661 7.1756 1.65251C6.66535 1.43892 6.11773 1.32892 5.56459 1.32892C5.01145 1.32892 4.46385 1.43892 3.95362 1.65251C3.4434 1.8661 2.98071 2.17903 2.59251 2.57309C2.20432 2.96715 1.89834 3.43447 1.69239 3.94787C1.48645 4.46126 1.38464 5.01049 1.39288 5.56362C1.40922 6.65928 1.85592 7.70462 2.6365 8.47368C3.41707 9.24275 4.46884 9.6739 5.56459 9.6739C6.66035 9.6739 7.71213 9.24275 8.4927 8.47368C9.27328 7.70462 9.71998 6.65928 9.73628 5.56362Z" fill="#818492"/>
</svg>