<svg width="24" height="24" viewBox="0 0 24 24" fill="none" xmlns="http://www.w3.org/2000/svg">
<rect x="8" y="7" width="8" height="2" fill="#E5592D"/>
<rect x="8" y="11" width="8" height="2" fill="#E5592D"/>
<path fill-rule="evenodd" clip-rule="evenodd" d="M4 6C4 4.34315 5.34315 3 7 3H17C18.6569 3 20 4.34315 20 6V18C20 19.6569 18.6569 21 17 21H7C5.34315 21 4 19.6569 4 18V6ZM7 5C6.44772 5 6 5.44772 6 6V15H11V17H6V18C6 18.5523 6.44772 19 7 19H17C17.5523 19 18 18.5523 18 18V17H13V15H18V6C18 5.44772 17.5523 5 17 5H7Z" fill="#E5592D"/>
</svg>
