<svg width="48" height="48" viewBox="0 0 48 48" fill="none" xmlns="http://www.w3.org/2000/svg">
<path fill-rule="evenodd" clip-rule="evenodd" d="M6 10C6 6.68629 8.68629 4 12 4H36C39.3137 4 42 6.68629 42 10V38C42 41.3137 39.3137 44 36 44H12C8.68629 44 6 41.3137 6 38V10ZM12 8C10.8954 8 10 8.89543 10 10V38C10 39.1046 10.8954 40 12 40H36C37.1046 40 38 39.1046 38 38V10C38 8.89543 37.1046 8 36 8H12Z" fill="#818492"/>
<path fill-rule="evenodd" clip-rule="evenodd" d="M24 12C25.1046 12 26 12.8954 26 14V34C26 35.1046 25.1046 36 24 36C22.8954 36 22 35.1046 22 34V14C22 12.8954 22.8954 12 24 12Z" fill="#818492"/>
<path fill-rule="evenodd" clip-rule="evenodd" d="M16 21C17.1046 21 18 21.8954 18 23V34C18 35.1046 17.1046 36 16 36C14.8954 36 14 35.1046 14 34V23C14 21.8954 14.8954 21 16 21Z" fill="#818492"/>
<path fill-rule="evenodd" clip-rule="evenodd" d="M32 21C33.1046 21 34 21.8954 34 23V34C34 35.1046 33.1046 36 32 36C30.8954 36 30 35.1046 30 34V23C30 21.8954 30.8954 21 32 21Z" fill="#818492"/>
</svg>
