<svg width="24" height="24" viewBox="0 0 24 24" fill="none" xmlns="http://www.w3.org/2000/svg">
<path fill-rule="evenodd" clip-rule="evenodd" d="M3 5C3 3.34315 4.34315 2 6 2H18C19.6569 2 21 3.34315 21 5V19C21 20.6569 19.6569 22 18 22H6C4.34315 22 3 20.6569 3 19V5ZM6 4C5.44772 4 5 4.44772 5 5V19C5 19.5523 5.44772 20 6 20H18C18.5523 20 19 19.5523 19 19V5C19 4.44772 18.5523 4 18 4H6Z" fill="#818492"/>
<path fill-rule="evenodd" clip-rule="evenodd" d="M12 6C12.5523 6 13 6.44772 13 7V17C13 17.5523 12.5523 18 12 18C11.4477 18 11 17.5523 11 17V7C11 6.44772 11.4477 6 12 6Z" fill="#818492"/>
<path fill-rule="evenodd" clip-rule="evenodd" d="M8 10.5C8.55228 10.5 9 10.9477 9 11.5V17C9 17.5523 8.55228 18 8 18C7.44772 18 7 17.5523 7 17V11.5C7 10.9477 7.44772 10.5 8 10.5Z" fill="#818492"/>
<path fill-rule="evenodd" clip-rule="evenodd" d="M16 10.5C16.5523 10.5 17 10.9477 17 11.5V17C17 17.5523 16.5523 18 16 18C15.4477 18 15 17.5523 15 17V11.5C15 10.9477 15.4477 10.5 16 10.5Z" fill="#818492"/>
</svg>