<svg width="24" height="24" viewBox="0 0 24 24" fill="none" xmlns="http://www.w3.org/2000/svg">
<path fill-rule="evenodd" clip-rule="evenodd" d="M9 3C9.55228 3 10 3.44772 10 4V5H14V4C14 3.44772 14.4477 3 15 3C15.5523 3 16 3.44772 16 4V5H17C18.6569 5 20 6.34315 20 8V18C20 19.6569 18.6569 21 17 21H7C5.34315 21 4 19.6569 4 18V8C4 6.34315 5.34315 5 7 5H8V4C8 3.44772 8.44772 3 9 3ZM7 7C6.44772 7 6 7.44772 6 8V9H18V8C18 7.44772 17.5523 7 17 7H7ZM18 11H6V18C6 18.5523 6.44772 19 7 19H17C17.5523 19 18 18.5523 18 18V11Z" fill="#E5592D"/>
</svg>
