<svg width="24" height="24" viewBox="0 0 24 24" fill="none" xmlns="http://www.w3.org/2000/svg">
<rect x="11" y="11" width="6" height="2" transform="rotate(90 11 11)" fill="#818492"/>
<path fill-rule="evenodd" clip-rule="evenodd" d="M9 6C9 5.44772 9.44772 5 10 5H14C14.5523 5 15 5.44772 15 6V7H9V6ZM7 7L7 6C7 4.34315 8.34315 3 10 3H14C15.6569 3 17 4.34315 17 6V7H20V9H19V19C19 20.1046 18.1046 21 17 21H7C5.89543 21 5 20.1046 5 19V9L4 9V7H7ZM15 9H9H7V19H17V9H15Z" fill="#818492"/>
<rect x="15" y="11" width="6" height="2" transform="rotate(90 15 11)" fill="#818492"/>
</svg>
