<svg width="24" height="33" viewBox="0 0 24 33" fill="none" xmlns="http://www.w3.org/2000/svg">
<g clip-path="url(#clip0_2951_29)">
<path d="M0.0643675 33.001V32.9782L0 0.00792454L6.62069 0L6.64644 13.3516C8.31164 12.4528 10.1494 11.9876 12.012 11.9935C13.4263 11.9912 14.7821 11.3853 15.7827 10.3086C16.7833 9.23181 17.3472 7.77189 17.3508 6.24836L17.36 0.00198151L23.9807 0.0138676L23.9715 6.26024C23.9605 13.3516 18.5949 19.1254 12.012 19.1254C11.3111 19.1254 10.6171 19.2742 9.9697 19.5633C9.32227 19.8524 8.73409 20.2761 8.23877 20.8103C7.74345 21.3444 7.35071 21.9784 7.08301 22.6761C6.81531 23.3739 6.6779 24.1216 6.67862 24.8765L6.68506 32.9931L0.0643675 33.001Z" fill="#FF603D"/>
<path d="M16.1269 32.993C16.241 30.8259 17.1199 28.7879 18.5836 27.2962C20.0473 25.8045 21.9851 24.9722 24 24.9696V17.8376C20.2284 17.8374 16.605 19.4196 13.8982 22.2489C11.1914 25.0782 9.61404 28.932 9.5007 32.993H16.1269Z" fill="#FF603D"/>
</g>
<defs>
<clipPath id="clip0_2951_29">
<rect width="24" height="33" fill="white"/>
</clipPath>
</defs>
</svg>
