<svg width="42" height="55" viewBox="0 0 42 55" fill="none" xmlns="http://www.w3.org/2000/svg">
<g clip-path="url(#clip0_2951_29)">
<path d="M0.112643 55.0016V54.9637L0 0.0132076L11.5862 0L11.6313 22.2526C14.5454 20.7547 17.7615 19.9794 21.0209 19.9892C23.496 19.9853 25.8687 18.9755 27.6198 17.1809C29.3708 15.3864 30.3575 12.9531 30.3639 10.4139L30.38 0.00330252L41.9662 0.0231126L41.9501 10.4337C41.9308 22.2526 32.5412 31.8757 21.0209 31.8757C19.7944 31.8757 18.58 32.1237 17.447 32.6056C16.314 33.0874 15.2846 33.7936 14.4178 34.6838C13.551 35.574 12.8637 36.6307 12.3953 37.7936C11.9268 38.9564 11.6863 40.2026 11.6876 41.4609L11.6989 54.9884L0.112643 55.0016Z" fill="#FF603D"/>
<path d="M28.2221 54.9885C28.4217 51.3768 29.9597 47.98 32.5212 45.4939C35.0828 43.0077 38.4739 41.6205 42 41.6162V29.7296C35.3997 29.7291 29.0587 32.3662 24.3218 37.0817C19.5849 41.7972 16.8246 48.2201 16.6262 54.9885H28.2221Z" fill="#FF603D"/>
</g>
<defs>
<clipPath id="clip0_2951_29">
<rect width="42" height="55" fill="white"/>
</clipPath>
</defs>
</svg>
