<svg width="32" height="32" viewBox="0 0 32 32" fill="none" xmlns="http://www.w3.org/2000/svg">
<rect width="32" height="32" rx="7" fill="#F2F2F4"/>
<g clip-path="url(#clip0_1969_444)">
<path d="M20.1047 19.1486V20.1319C20.1047 20.6749 19.8112 21.1153 19.2554 21.1153C18.6996 21.1153 18.3118 20.6749 18.3118 20.1319V16.6903C18.3118 15.9079 17.9936 15.1575 17.4273 14.6043C16.861 14.0511 16.093 13.7403 15.2921 13.7403H13.908V8.39347H11.8949V13.7403H10.8884C10.0875 13.7403 9.31941 14.0511 8.75309 14.6043C8.18678 15.1575 7.86864 15.9079 7.86864 16.6903C7.86864 17.4727 8.18678 18.223 8.75309 18.7762C9.31941 19.3295 10.0875 19.6403 10.8884 19.6403H11.8949V23.0819H13.908V15.707H15.2921C15.559 15.707 15.815 15.8105 16.0038 15.995C16.1926 16.1794 16.2986 16.4295 16.2986 16.6903V20.1319C16.2986 21.7606 17.5883 23.0819 19.2554 23.0819C20.9225 23.0819 22.1178 21.7606 22.1178 20.1319V19.1486H20.1047ZM11.8949 17.6736H10.8884C10.6214 17.6736 10.3654 17.5701 10.1766 17.3856C9.98785 17.2012 9.8818 16.9511 9.8818 16.6903C9.8818 16.4295 9.98785 16.1794 10.1766 15.995C10.3654 15.8105 10.6214 15.707 10.8884 15.707H11.8949V17.6736Z" fill="#FF603D"/>
<path d="M24.1308 13.6175H22.1177V18.657H24.1308V13.6175Z" fill="#FF603D"/>
</g>
<defs>
<clipPath id="clip0_1969_444">
<rect width="16.2623" height="14.6885" fill="white" transform="translate(7.86865 8.39344)"/>
</clipPath>
</defs>
</svg>