<svg width="179" height="179" viewBox="0 0 179 179" fill="none" xmlns="http://www.w3.org/2000/svg">
<rect width="179" height="179" rx="30" fill="url(#paint0_linear_1873_620)"/>
<defs>
<linearGradient id="paint0_linear_1873_620" x1="89.5" y1="0" x2="89.5" y2="179" gradientUnits="userSpaceOnUse">
<stop stop-color="#F8472E"/>
<stop offset="1" stop-color="#FF9473"/>
</linearGradient>
</defs>
<g clip-path="url(#clip0_1873_916)" transform="translate(44 48)">
    <path d="M68.47 61.5063V67.1297C68.47 70.2349 66.8278 72.7531 63.7176 72.7531C60.6074 72.7531 58.4371 70.2349 58.4371 67.1297V47.4477C58.4371 42.9734 56.6569 38.6824 53.488 35.5186C50.3191 32.3548 46.0211 30.5774 41.5397 30.5774H33.795V0H22.53V30.5774H16.8975C12.416 30.5774 8.11805 32.3548 4.94916 35.5186C1.78026 38.6824 0 42.9734 0 47.4477C0 51.922 1.78026 56.213 4.94916 59.3768C8.11805 62.5406 12.416 64.318 16.8975 64.318H22.53V84H33.795V41.8243H41.5397C43.0335 41.8243 44.4661 42.4167 45.5224 43.4713C46.5787 44.5259 47.1721 45.9563 47.1721 47.4477V67.1297C47.1721 76.4435 54.3888 84 63.7176 84C73.0464 84 79.735 76.4435 79.735 67.1297V61.5063H68.47ZM22.53 53.0711H16.8975C15.4037 53.0711 13.971 52.4787 12.9147 51.4241C11.8584 50.3695 11.265 48.9391 11.265 47.4477C11.265 45.9563 11.8584 44.5259 12.9147 43.4713C13.971 42.4167 15.4037 41.8243 16.8975 41.8243H22.53V53.0711Z" fill="white"/>
    <path d="M91.0003 29.8745H79.7354V58.6946H91.0003V29.8745Z" fill="white"/>
  </g>
  <defs>
    <clipPath id="clip0_1873_916">
      <rect width="91" height="84" fill="white"/>
    </clipPath>
  </defs>
</svg>
