<svg width="16" height="16" viewBox="0 0 16 16" fill="none" xmlns="http://www.w3.org/2000/svg">
  <rect width="16" height="16" fill="white"/>
  <path d="M2.5295 15.0004V14.9908L2.5 1.00336L5.53448 1L5.54628 6.6643C6.3095 6.283 7.15182 6.08566 8.00548 6.08816C8.65371 6.08716 9.27514 5.83013 9.73375 5.37333C10.1924 4.91653 10.4508 4.29717 10.4525 3.65082L10.4567 1.00084L13.4911 1.00588L13.4869 3.65586C13.4819 6.6643 11.0227 9.11382 8.00548 9.11382C7.68426 9.11382 7.36618 9.17695 7.06945 9.29959C6.77271 9.42224 6.50312 9.602 6.2761 9.82859C6.04908 10.0552 5.86908 10.3242 5.74638 10.6202C5.62368 10.9162 5.5607 11.2334 5.56103 11.5537L5.56398 14.9971L2.5295 15.0004Z" fill="#FF603D"/>
  <path d="M9.8915 14.9969C9.94378 14.0776 10.3466 13.2129 11.0175 12.5801C11.6884 11.9473 12.5765 11.5941 13.5 11.593V8.56738C11.7714 8.56726 10.1106 9.23852 8.87 10.4388C7.62937 11.6391 6.90644 13.2741 6.85449 14.9969H9.8915Z" fill="#FF603D"/>
</svg>
