<svg width="203" height="203" viewBox="0 0 203 203" fill="none" xmlns="http://www.w3.org/2000/svg">
<rect width="203" height="203" rx="50" fill="url(#paint0_linear_1770_111)"/>
<path fill-rule="evenodd" clip-rule="evenodd" d="M72.4974 53H85.9477V87.3201H94.7648V87.3204L94.858 87.3201C105.117 87.3201 113.433 95.6365 113.433 105.895V120.953H113.505V131.39C113.505 134.81 116.277 137.582 119.697 137.582C123.116 137.582 125.888 134.81 125.888 131.39V120.953H138.272V131.39C138.272 141.649 129.955 149.966 119.697 149.966C109.438 149.966 101.121 141.649 101.121 131.39V124.824H101.05V105.895C101.05 102.476 98.2776 99.7036 94.858 99.7036C94.8268 99.7036 94.7956 99.7038 94.7644 99.7043V99.7036H85.9477V149.256H72.4974V99.7036L72.4746 99.7036L68.5826 99.7036L65.5752 99.7036C62.1556 99.7036 59.3835 102.476 59.3835 105.895C59.3835 109.315 62.1556 112.087 65.5752 112.087H72.4746V124.471H65.5752C55.3164 124.471 47 116.154 47 105.895C47 95.6365 55.3164 87.3201 65.5752 87.3201L68.5826 87.3201H72.4746H72.4974V53Z" fill="white"/>
<defs>
<linearGradient id="paint0_linear_1770_111" x1="101.5" y1="0" x2="101.5" y2="203" gradientUnits="userSpaceOnUse">
<stop stop-color="#F8472E"/>
<stop offset="1" stop-color="#FF9473"/>
</linearGradient>
</defs>
</svg>
